<?xml version="1.0" encoding="UTF-8" standalone="no"?>
<!DOCTYPE svg PUBLIC "-//W3C//DTD SVG 1.1//EN"
 "http://www.w3.org/Graphics/SVG/1.1/DTD/svg11.dtd">
<!-- Generated by graphviz version 2.43.0 (0)
 -->
<!-- Title: %3 Pages: 1 -->
<svg width="230pt" height="587pt"
 viewBox="0.00 0.00 230.00 587.00" xmlns="http://www.w3.org/2000/svg" xmlns:xlink="http://www.w3.org/1999/xlink">
<g id="graph0" class="graph" transform="scale(1 1) rotate(0) translate(4 583)">
<title>%3</title>
<polygon fill="white" stroke="transparent" points="-4,4 -4,-583 226,-583 226,4 -4,4"/>
<!-- A -->
<g id="node1" class="node">
<title>A</title>
<ellipse fill="none" stroke="black" cx="185" cy="-561" rx="27" ry="18"/>
<text text-anchor="middle" x="185" y="-557.3" font-family="Times,serif" font-size="14.00">A</text>
</g>
<!-- B -->
<g id="node2" class="node">
<title>B</title>
<ellipse fill="none" stroke="black" cx="128" cy="-474" rx="27" ry="18"/>
<text text-anchor="middle" x="128" y="-470.3" font-family="Times,serif" font-size="14.00">B</text>
</g>
<!-- A&#45;&#45;B -->
<g id="edge1" class="edge">
<title>A&#45;&#45;B</title>
<path fill="none" stroke="black" d="M174.28,-544.01C164.02,-528.72 148.65,-505.8 138.48,-490.63"/>
<text text-anchor="middle" x="165" y="-513.8" font-family="Times,serif" font-size="14.00">1</text>
</g>
<!-- C -->
<g id="node3" class="node">
<title>C</title>
<ellipse fill="none" stroke="black" cx="189" cy="-333" rx="27" ry="18"/>
<text text-anchor="middle" x="189" y="-329.3" font-family="Times,serif" font-size="14.00">C</text>
</g>
<!-- A&#45;&#45;C -->
<g id="edge2" class="edge">
<title>A&#45;&#45;C</title>
<path fill="none" stroke="black" d="M185.31,-542.64C186.05,-500.47 187.96,-393.02 188.7,-351.11"/>
<text text-anchor="middle" x="191" y="-470.3" font-family="Times,serif" font-size="14.00">4</text>
</g>
<!-- B&#45;&#45;C -->
<g id="edge6" class="edge">
<title>B&#45;&#45;C</title>
<path fill="none" stroke="black" d="M135.24,-456.51C146.98,-429.76 170.04,-377.21 181.77,-350.47"/>
<text text-anchor="middle" x="155" y="-426.8" font-family="Times,serif" font-size="14.00">2</text>
</g>
<!-- H -->
<g id="node4" class="node">
<title>H</title>
<ellipse fill="none" stroke="black" cx="27" cy="-387" rx="27" ry="18"/>
<text text-anchor="middle" x="27" y="-383.3" font-family="Times,serif" font-size="14.00">H</text>
</g>
<!-- B&#45;&#45;H -->
<g id="edge3" class="edge">
<title>B&#45;&#45;H</title>
<path fill="none" stroke="black" d="M105.99,-463.25C93.49,-457.08 77.99,-448.33 66,-438 54.49,-428.08 44.06,-414.33 36.88,-403.76"/>
<text text-anchor="middle" x="71" y="-426.8" font-family="Times,serif" font-size="14.00">2</text>
</g>
<!-- G -->
<g id="node5" class="node">
<title>G</title>
<ellipse fill="none" stroke="black" cx="72" cy="-279" rx="27" ry="18"/>
<text text-anchor="middle" x="72" y="-275.3" font-family="Times,serif" font-size="14.00">G</text>
</g>
<!-- B&#45;&#45;G -->
<g id="edge4" class="edge">
<title>B&#45;&#45;G</title>
<path fill="none" stroke="black" d="M121.01,-456.38C118.67,-450.6 116.12,-444.05 114,-438 96.34,-387.65 81.97,-326.04 75.58,-296.86"/>
<text text-anchor="middle" x="109" y="-383.3" font-family="Times,serif" font-size="14.00">4</text>
</g>
<!-- D -->
<g id="node6" class="node">
<title>D</title>
<ellipse fill="none" stroke="black" cx="128" cy="-192" rx="27" ry="18"/>
<text text-anchor="middle" x="128" y="-188.3" font-family="Times,serif" font-size="14.00">D</text>
</g>
<!-- B&#45;&#45;D -->
<g id="edge5" class="edge">
<title>B&#45;&#45;D</title>
<path fill="none" stroke="black" d="M128,-455.91C128,-405.92 128,-260.38 128,-210.23"/>
<text text-anchor="middle" x="133" y="-329.3" font-family="Times,serif" font-size="14.00">9</text>
</g>
<!-- C&#45;&#45;D -->
<g id="edge10" class="edge">
<title>C&#45;&#45;D</title>
<path fill="none" stroke="black" d="M181.76,-315.51C170.02,-288.76 146.96,-236.21 135.23,-209.47"/>
<text text-anchor="middle" x="179" y="-275.3" font-family="Times,serif" font-size="14.00">1</text>
</g>
<!-- E -->
<g id="node8" class="node">
<title>E</title>
<ellipse fill="none" stroke="black" cx="164" cy="-18" rx="27" ry="18"/>
<text text-anchor="middle" x="164" y="-14.3" font-family="Times,serif" font-size="14.00">E</text>
</g>
<!-- C&#45;&#45;E -->
<g id="edge11" class="edge">
<title>C&#45;&#45;E</title>
<path fill="none" stroke="black" d="M195.53,-315.39C202.33,-296.56 212,-264.81 212,-236.5 212,-236.5 212,-236.5 212,-104 212,-76.38 192.54,-49.47 178.4,-33.57"/>
<text text-anchor="middle" x="217" y="-188.3" font-family="Times,serif" font-size="14.00">3</text>
</g>
<!-- H&#45;&#45;G -->
<g id="edge7" class="edge">
<title>H&#45;&#45;G</title>
<path fill="none" stroke="black" d="M34.01,-369.35C40.07,-354.95 49.09,-333.59 57,-315 59.54,-309.04 62.33,-302.51 64.81,-296.73"/>
<text text-anchor="middle" x="66.5" y="-329.3" font-family="Times,serif" font-size="14.00">14</text>
</g>
<!-- G&#45;&#45;D -->
<g id="edge8" class="edge">
<title>G&#45;&#45;D</title>
<path fill="none" stroke="black" d="M81.96,-262.15C88.21,-252.28 96.49,-239.34 104,-228 108.23,-221.61 112.99,-214.64 117.14,-208.61"/>
<text text-anchor="middle" x="109" y="-231.8" font-family="Times,serif" font-size="14.00">1</text>
</g>
<!-- F -->
<g id="node7" class="node">
<title>F</title>
<ellipse fill="none" stroke="black" cx="101" cy="-105" rx="27" ry="18"/>
<text text-anchor="middle" x="101" y="-101.3" font-family="Times,serif" font-size="14.00">F</text>
</g>
<!-- G&#45;&#45;F -->
<g id="edge9" class="edge">
<title>G&#45;&#45;F</title>
<path fill="none" stroke="black" d="M72.72,-260.94C73.8,-240.23 76.35,-204.31 82,-174 85.3,-156.29 91.07,-136.49 95.39,-122.85"/>
<text text-anchor="middle" x="87" y="-188.3" font-family="Times,serif" font-size="14.00">6</text>
</g>
<!-- D&#45;&#45;F -->
<g id="edge13" class="edge">
<title>D&#45;&#45;F</title>
<path fill="none" stroke="black" d="M122.67,-174.21C117.93,-159.31 111.05,-137.65 106.32,-122.76"/>
<text text-anchor="middle" x="122" y="-144.8" font-family="Times,serif" font-size="14.00">3</text>
</g>
<!-- D&#45;&#45;E -->
<g id="edge12" class="edge">
<title>D&#45;&#45;E</title>
<path fill="none" stroke="black" d="M131.58,-173.88C138.48,-140.91 153.54,-68.97 160.43,-36.05"/>
<text text-anchor="middle" x="155" y="-101.3" font-family="Times,serif" font-size="14.00">1</text>
</g>
<!-- F&#45;&#45;E -->
<g id="edge14" class="edge">
<title>F&#45;&#45;E</title>
<path fill="none" stroke="black" d="M112.56,-88.41C123.92,-73.07 141.18,-49.79 152.52,-34.49"/>
<text text-anchor="middle" x="142" y="-57.8" font-family="Times,serif" font-size="14.00">1</text>
</g>
</g>
</svg>
