<?xml version="1.0" encoding="UTF-8" standalone="no"?>
<!DOCTYPE svg PUBLIC "-//W3C//DTD SVG 1.1//EN"
 "http://www.w3.org/Graphics/SVG/1.1/DTD/svg11.dtd">
<!-- Generated by graphviz version 2.43.0 (0)
 -->
<!-- Title: %3 Pages: 1 -->
<svg width="728pt" height="584pt"
 viewBox="0.00 0.00 728.00 584.00" xmlns="http://www.w3.org/2000/svg" xmlns:xlink="http://www.w3.org/1999/xlink">
<g id="graph0" class="graph" transform="scale(1 1) rotate(0) translate(4 580)">
<title>%3</title>
<polygon fill="white" stroke="transparent" points="-4,4 -4,-580 724,-580 724,4 -4,4"/>
<!-- A -->
<g id="node1" class="node">
<title>A</title>
<image xlink:href="icon_router.png" width="72px" height="72px" preserveAspectRatio="xMinYMin meet" x="648" y="-396"/>
<text text-anchor="middle" x="684" y="-352.5" font-family="Times,serif" font-size="30.00" fill="red">A</text>
</g>
<!-- B -->
<g id="node2" class="node">
<title>B</title>
<image xlink:href="icon_router.png" width="72px" height="72px" preserveAspectRatio="xMinYMin meet" x="432" y="-576"/>
<text text-anchor="middle" x="468" y="-532.5" font-family="Times,serif" font-size="30.00" fill="red">B</text>
</g>
<!-- A&#45;&#45;B -->
<g id="edge1" class="edge">
<title>A&#45;&#45;B</title>
<path fill="none" stroke="blue" d="M647.85,-390.13C607.97,-423.35 544.19,-476.51 504.27,-509.77"/>
<text text-anchor="middle" x="569.56" y="-455.95" font-family="Times,serif" font-size="20.00" fill="blue">1</text>
</g>
<!-- C -->
<g id="node3" class="node">
<title>C</title>
<image xlink:href="icon_router.png" width="72px" height="72px" preserveAspectRatio="xMinYMin meet" x="432" y="-288"/>
<text text-anchor="middle" x="468" y="-244.5" font-family="Times,serif" font-size="30.00" fill="red">C</text>
</g>
<!-- A&#45;&#45;C -->
<g id="edge2" class="edge">
<title>A&#45;&#45;C</title>
<path fill="none" stroke="blue" d="M647.85,-341.92C607.97,-321.99 544.19,-290.1 504.27,-270.14"/>
<text text-anchor="middle" x="569.56" y="-312.03" font-family="Times,serif" font-size="20.00" fill="blue">4</text>
</g>
<!-- B&#45;&#45;C -->
<g id="edge6" class="edge">
<title>B&#45;&#45;C</title>
<path fill="none" stroke="blue" d="M468,-503.82C468,-448.52 468,-343.6 468,-288.26"/>
<text text-anchor="middle" x="461.5" y="-402.04" font-family="Times,serif" font-size="20.00" fill="blue">2</text>
</g>
<!-- D -->
<g id="node4" class="node">
<title>D</title>
<image xlink:href="icon_router.png" width="72px" height="72px" preserveAspectRatio="xMinYMin meet" x="216" y="-288"/>
<text text-anchor="middle" x="252" y="-244.5" font-family="Times,serif" font-size="30.00" fill="red">D</text>
</g>
<!-- B&#45;&#45;D -->
<g id="edge5" class="edge">
<title>B&#45;&#45;D</title>
<path fill="none" stroke="blue" d="M440.86,-503.82C399.39,-448.52 320.7,-343.6 279.2,-288.26"/>
<text text-anchor="middle" x="353.53" y="-402.04" font-family="Times,serif" font-size="20.00" fill="blue">9</text>
</g>
<!-- G -->
<g id="node7" class="node">
<title>G</title>
<image xlink:href="icon_router.png" width="72px" height="72px" preserveAspectRatio="xMinYMin meet" x="36" y="-432"/>
<text text-anchor="middle" x="72" y="-388.5" font-family="Times,serif" font-size="30.00" fill="red">G</text>
</g>
<!-- B&#45;&#45;G -->
<g id="edge4" class="edge">
<title>B&#45;&#45;G</title>
<path fill="none" stroke="blue" d="M431.81,-526.84C356.49,-499.45 183.62,-436.59 108.25,-409.18"/>
<text text-anchor="middle" x="263.53" y="-474.01" font-family="Times,serif" font-size="20.00" fill="blue">4</text>
</g>
<!-- H -->
<g id="node8" class="node">
<title>H</title>
<image xlink:href="icon_router.png" width="72px" height="72px" preserveAspectRatio="xMinYMin meet" x="216" y="-576"/>
<text text-anchor="middle" x="252" y="-532.5" font-family="Times,serif" font-size="30.00" fill="red">H</text>
</g>
<!-- B&#45;&#45;H -->
<g id="edge3" class="edge">
<title>B&#45;&#45;H</title>
<path fill="none" stroke="blue" d="M431.85,-540C391.97,-540 328.19,-540 288.27,-540"/>
<text text-anchor="middle" x="353.56" y="-546" font-family="Times,serif" font-size="20.00" fill="blue">2</text>
</g>
<!-- C&#45;&#45;D -->
<g id="edge10" class="edge">
<title>C&#45;&#45;D</title>
<path fill="none" stroke="blue" d="M431.85,-252C391.97,-252 328.19,-252 288.27,-252"/>
<text text-anchor="middle" x="353.56" y="-258" font-family="Times,serif" font-size="20.00" fill="blue">1</text>
</g>
<!-- E -->
<g id="node5" class="node">
<title>E</title>
<image xlink:href="icon_router.png" width="72px" height="72px" preserveAspectRatio="xMinYMin meet" x="252" y="-72"/>
<text text-anchor="middle" x="288" y="-28.5" font-family="Times,serif" font-size="30.00" fill="red">E</text>
</g>
<!-- C&#45;&#45;E -->
<g id="edge11" class="edge">
<title>C&#45;&#45;E</title>
<path fill="none" stroke="blue" d="M437.87,-215.85C404.65,-175.97 351.49,-112.19 318.23,-72.27"/>
<text text-anchor="middle" x="371.55" y="-150.06" font-family="Times,serif" font-size="20.00" fill="blue">3</text>
</g>
<!-- D&#45;&#45;E -->
<g id="edge12" class="edge">
<title>D&#45;&#45;E</title>
<path fill="none" stroke="blue" d="M258.03,-215.85C264.67,-175.97 275.3,-112.19 281.95,-72.27"/>
<text text-anchor="middle" x="263.49" y="-150.06" font-family="Times,serif" font-size="20.00" fill="blue">1</text>
</g>
<!-- F -->
<g id="node6" class="node">
<title>F</title>
<image xlink:href="icon_router.png" width="72px" height="72px" preserveAspectRatio="xMinYMin meet" x="0" y="-144"/>
<text text-anchor="middle" x="36" y="-100.5" font-family="Times,serif" font-size="30.00" fill="red">F</text>
</g>
<!-- D&#45;&#45;F -->
<g id="edge13" class="edge">
<title>D&#45;&#45;F</title>
<path fill="none" stroke="blue" d="M215.85,-227.9C175.97,-201.32 112.19,-158.79 72.27,-132.18"/>
<text text-anchor="middle" x="137.56" y="-186.04" font-family="Times,serif" font-size="20.00" fill="blue">3</text>
</g>
<!-- F&#45;&#45;E -->
<g id="edge14" class="edge">
<title>F&#45;&#45;E</title>
<path fill="none" stroke="blue" d="M72.11,-97.68C120.01,-84 204.09,-59.97 251.96,-46.3"/>
<text text-anchor="middle" x="155.53" y="-77.99" font-family="Times,serif" font-size="20.00" fill="blue">1</text>
</g>
<!-- G&#45;&#45;D -->
<g id="edge8" class="edge">
<title>G&#45;&#45;D</title>
<path fill="none" stroke="blue" d="M108.43,-366.86C139.76,-341.79 184.71,-305.83 215.94,-280.85"/>
<text text-anchor="middle" x="155.68" y="-329.86" font-family="Times,serif" font-size="20.00" fill="blue">1</text>
</g>
<!-- G&#45;&#45;F -->
<g id="edge9" class="edge">
<title>G&#45;&#45;F</title>
<path fill="none" stroke="blue" d="M67.48,-359.82C60.57,-304.52 47.45,-199.6 40.53,-144.26"/>
<text text-anchor="middle" x="47.5" y="-258.04" font-family="Times,serif" font-size="20.00" fill="blue">6</text>
</g>
<!-- H&#45;&#45;G -->
<g id="edge7" class="edge">
<title>H&#45;&#45;G</title>
<path fill="none" stroke="blue" d="M215.57,-510.86C184.24,-485.79 139.29,-449.83 108.06,-424.85"/>
<text text-anchor="middle" x="148.82" y="-473.86" font-family="Times,serif" font-size="20.00" fill="blue">14</text>
</g>
</g>
</svg>
